# xmcd
#
# Track frame offsets:
#       150
#       12536
#       26887
#       40212
#       55408
#       69102
#       84622
#       98734
#       109557
#       119994
#       133934
#       147878
#       162435
#       177717
#       192876
#       208107
#       221918
#       236259
#       251123
#       265388
#
# Disc length: 3711 seconds
#
# Revision: 1
# Processed by: cddbd v1.5.2PL0 Copyright (c) Steve Scherf et al.
# Submitted via: FreeDbEdit v0.1
#
DISCID=390e7d14
DTITLE=Count Basie - Bolero at the Savoy [CD2]
DYEAR=1900
DGENRE=
TTITLE0=Musik Makers
TTITLE1=Beau Brummel
TTITLE2=Undediced Blues
TTITLE3=Going to Chicago Blues
TTITLE4=All of Me
TTITLE5=Moon Nocturne
TTITLE6=Fiesta in Blue
TTITLE7=Basie Boogie
TTITLE8=Something New
TTITLE9=My Old Flame
TTITLE10=One O'Clock Jump
TTITLE11=Rusty Dusty Blues
TTITLE12=Time on My Hands
TTITLE13=Harvard Blues
TTITLE14=I Didn't Know About You
TTITLE15=I'm Gonna Move to the Outskirts of Town
TTITLE16=The King
TTITLE17=That Old Feeling
TTITLE18=The Heart of Mine
TTITLE19=Blue Skies
EXTD=
EXTT0=
EXTT1=
EXTT2=
EXTT3=
EXTT4=
EXTT5=
EXTT6=
EXTT7=
EXTT8=
EXTT9=
EXTT10=
EXTT11=
EXTT12=
EXTT13=
EXTT14=
EXTT15=
EXTT16=
EXTT17=
EXTT18=
EXTT19=
PLAYORDER=
